<svg xmlns="http://www.w3.org/2000/svg" viewBox="0 0 902.34 89.83"><defs><style>.cls-1{fill:#fdfeff;}</style></defs><title>bodyX-logo_white</title><g id="Слой_2" data-name="Слой 2"><g id="Слой_1-2" data-name="Слой 1"><path class="cls-1" d="M0,53.49H18.72V74.15H62v-27H0V31.43H70.33a9.32,9.32,0,0,1,3.7.82,12.65,12.65,0,0,1,3.39,2.14,11.34,11.34,0,0,1,2.4,3,7.13,7.13,0,0,1,.91,3.43V80.42a7.11,7.11,0,0,1-.91,3.43,11.14,11.14,0,0,1-2.4,3A12.2,12.2,0,0,1,74,89a9.32,9.32,0,0,1-3.7.82H0Z"/><path class="cls-1" d="M161.32,31.43h77.74V47.11H209.55V89.83H190.83V47.11H161.32Z"/><path class="cls-1" d="M374.35,47.11H322.22V31.43h60.45a9.37,9.37,0,0,1,3.71.82,12.75,12.75,0,0,1,3.38,2.14,11.14,11.14,0,0,1,2.4,3,7.13,7.13,0,0,1,.91,3.43V53.61a10.29,10.29,0,0,1,3.38,1.1,12.07,12.07,0,0,1,3,2.15,10.54,10.54,0,0,1,2.08,2.84,7.11,7.11,0,0,1,.78,3.19V80.42a7.11,7.11,0,0,1-.91,3.43,11,11,0,0,1-2.4,3A12.3,12.3,0,0,1,395.61,89a9.37,9.37,0,0,1-3.71.82H322.22V53.49h52.13ZM340.94,67.77v6.38h42.64V67.77Z"/><path class="cls-1" d="M131.54,39.79a19.24,19.24,0,0,0-4.87-6.27,8.72,8.72,0,0,0-2.19-1.25L114.83,49.4l10.08,16.74H105.4L97.55,80.07h34.77l5.2,9.75h20.8Z"/><path class="cls-1" d="M282,39.79a19.24,19.24,0,0,0-4.87-6.27A8.72,8.72,0,0,0,275,32.27L265.3,49.4l10.08,16.74H255.87L248,80.07h34.77l5.2,9.75h20.8Z"/><path class="cls-1" d="M453.52,39.79a19.24,19.24,0,0,0-4.87-6.27,8.72,8.72,0,0,0-2.19-1.25L436.81,49.4l10.08,16.74H427.38l-7.85,13.93H454.3l5.2,9.75h20.8Z"/><path class="cls-1" d="M504.68,67.77A9.3,9.3,0,0,1,501,67a12.23,12.23,0,0,1-3.38-2.15,11.18,11.18,0,0,1-2.41-3,7.07,7.07,0,0,1-.91-3.42V40.84a7.13,7.13,0,0,1,.91-3.43,11.18,11.18,0,0,1,2.41-3A12.44,12.44,0,0,1,501,32.25a9.32,9.32,0,0,1,3.7-.82h69V47.11H513v6.38h50.31a9.39,9.39,0,0,1,3.71.81,12.78,12.78,0,0,1,3.38,2.15,11.34,11.34,0,0,1,2.4,3,7.07,7.07,0,0,1,.91,3.42V80.42a7.11,7.11,0,0,1-.91,3.43,11.14,11.14,0,0,1-2.4,3A12.3,12.3,0,0,1,567,89a9.4,9.4,0,0,1-3.71.82h-69V74.15H555V67.77Z"/><path class="cls-1" d="M593,47.11V40.84c0-3.14,0-6.28,0-9.42h73.34V47.11H593Z"/><path class="cls-1" d="M611.75,53.49h54.47V67.77H611.75v6.38h54.6V89.83H603.43a9.37,9.37,0,0,1-3.71-.82,12.3,12.3,0,0,1-3.38-2.15,11,11,0,0,1-2.4-3,7.11,7.11,0,0,1-.91-3.43V53.49Z"/><path class="cls-1" d="M684.43,88.58h21.32a222.3,222.3,0,0,1,17.16-16.12A237.41,237.41,0,0,1,755.4,49.63c7.66-4.53,33.58-22.31,71.8-34.27A379.51,379.51,0,0,1,902.34,0a506.15,506.15,0,0,0-52.65,6.36C832,9.44,814.9,12.56,792.88,19.69c-40.06,13-67,32.92-73,36.77a289.05,289.05,0,0,0-37.82,29Z"/><path class="cls-1" d="M710.58,56.13l16.33-9-17.66-13L684.93,34l-1.5,2.67Z"/><path class="cls-1" d="M731.57,71.12l13.66-10.83,35,25.66-.67,2.63H754.73Z"/></g></g></svg>